<svg width="24" height="24" viewBox="0 0 24 24" fill="none" xmlns="http://www.w3.org/2000/svg">
<path d="M11.1221 5.102C10.9741 4.69922 10.6776 4.36832 10.2935 4.17716C9.90931 3.98601 9.46657 3.9491 9.05605 4.074C7.11005 4.674 5.75005 6.344 6.04205 8.276C6.37065 10.4198 7.09713 12.4832 8.18405 14.36C9.26097 16.2318 10.6732 17.8894 12.3501 19.25C13.8581 20.47 15.9741 20.134 17.4661 18.734C17.7799 18.4394 17.9703 18.0368 17.9989 17.6073C18.0275 17.1779 17.8921 16.7536 17.6201 16.42L16.5521 15.114C16.3381 14.8514 16.0502 14.6591 15.7257 14.5621C15.4012 14.4651 15.055 14.4679 14.7321 14.57L12.2681 15.35L11.8381 14.906C11.2965 14.3439 10.8226 13.7203 10.4261 13.048C10.042 12.3676 9.74247 11.643 9.53405 10.89L9.36805 10.3L11.2681 8.55C11.5194 8.31767 11.6958 8.01561 11.7745 7.68248C11.8533 7.34935 11.8308 7.0003 11.7101 6.68L11.1221 5.102ZM8.46805 2.162C9.36636 1.88716 10.3358 1.96626 11.1776 2.3831C12.0195 2.79995 12.6701 3.52296 12.9961 4.404L13.5821 5.98C13.8414 6.67228 13.8885 7.42613 13.7176 8.14534C13.5466 8.86454 13.1652 9.5165 12.6221 10.018L11.6421 10.92C11.7681 11.268 11.9381 11.666 12.1581 12.052C12.3781 12.432 12.6341 12.778 12.8681 13.06L14.1281 12.66C14.8325 12.4376 15.5874 12.4317 16.2952 12.6432C17.003 12.8546 17.6311 13.2737 18.0981 13.846L19.1661 15.152C19.7596 15.8778 20.0555 16.8019 19.9938 17.7375C19.9322 18.673 19.5177 19.5503 18.8341 20.192C16.8461 22.058 13.6001 22.832 11.0941 20.804C9.22654 19.2893 7.65369 17.4439 6.45405 15.36C5.24125 13.2668 4.43065 10.9652 4.06405 8.574C3.58405 5.388 5.87005 2.962 8.46805 2.164" fill="white"/>
</svg>
