<svg width="24" height="24" viewBox="0 0 24 24" fill="none" xmlns="http://www.w3.org/2000/svg">
<path d="M11.932 8.98001L10.278 10.464C10.4967 11.2124 10.8021 11.9326 11.188 12.61C11.5906 13.2825 12.0757 13.902 12.632 14.454L14.774 13.794C15.974 13.424 17.284 13.804 18.082 14.754L19.302 16.206C19.796 16.7889 20.0436 17.5412 19.9925 18.3035C19.9413 19.0659 19.5954 19.7783 19.028 20.29C17.038 22.106 13.974 22.72 11.68 20.918C9.66295 19.3315 7.9569 17.3854 6.64802 15.178C5.33581 12.9815 4.45726 10.5536 4.06002 8.02601C3.62002 5.18201 5.70202 2.90601 8.29802 2.13001C9.84602 1.66601 11.498 2.46201 12.066 3.94601L12.736 5.69601C13.176 6.84801 12.86 8.14801 11.932 8.98001Z" fill="black"/>
</svg>
